<svg xmlns="http://www.w3.org/2000/svg" width="263" height="40" viewBox="0 0 263 40"><g><g><g><g><text fill="#6255a5" dominant-baseline="text-before-edge" font-family="'Raleway','Raleway-Bold'" font-size="24" font-style="none" font-weight="700" transform="translate(57)"><tspan style="font-kerning:normal" letter-spacing="-.6">Notes MarketPlace</tspan></text></g></g><g><path fill="#6255a5" d="M4.67 27.948c-1.107-.927-1.825-2.29-1.825-3.83 0-2.121 1.338-3.933 3.222-4.68-2.8-.027-5.071-2.276-5.071-5.042 0-1.58.755-2.975 1.91-3.902L9.665 0h26.202l7.427 8.948v3.017H40.34l2.81 5.188v1.918H45v2.243h-1.707v5.609H45v2.243h-2.845v.982h-2.371v5.609h2.371v2.243H5.121C2.297 38 0 35.735 0 32.951c0-2.63 2.06-4.774 4.67-5.003zm1.447-10.747h32.529v-5.237H4.726c-.864.482-1.454 1.386-1.454 2.432 0 1.546 1.276 2.805 2.845 2.805zm-.996 6.917c0 1.546 1.277 2.804 2.845 2.804h33.05v-5.609H7.967c-1.568 0-2.845 1.258-2.845 2.805zM2.276 32.95c0 1.547 1.276 2.805 2.845 2.805h32.387v-5.61H5.12c-1.569 0-2.845 1.258-2.845 2.805z"/></g><g><g><text fill="#333" dominant-baseline="text-before-edge" font-family="'Raleway','Raleway-Regular'" font-size="15" font-style="none" font-weight="400" transform="translate(57 26)"><tspan style="font-kerning:normal" letter-spacing="-.07">Learning is a lifelong process...</tspan></text></g></g></g></g></svg>