<svg xmlns="http://www.w3.org/2000/svg" width="40" height="40" viewBox="0 0 40 40"><g><g><path fill="#6255a5" d="M37.344 17.92v2.074a.781.781 0 1 1-1.563 0v-2.073a8.078 8.078 0 0 0-5.47-7.66H19.064a8.108 8.108 0 0 0-4.265 3.409.781.781 0 1 1-1.33-.82 9.672 9.672 0 0 1 4.942-4.014L15.58 2.23a.782.782 0 0 1 .322-.981l1.417-.835a3.02 3.02 0 0 1 3.428.263l.217.177c.53.434 1.3.434 1.831-.001a3.017 3.017 0 0 1 3.81-.004l.008.007c.53.434 1.3.434 1.83 0l.213-.173a3.017 3.017 0 0 1 3.44-.256l1.38.82c.337.2.473.618.32.978l-2.813 6.618a9.636 9.636 0 0 1 6.36 9.079zM32.09 2.242l-.794-.472a1.45 1.45 0 0 0-1.653.123l-.213.174c-1.102.9-2.703.9-3.805 0l-.01-.007a1.45 1.45 0 0 0-1.83.002 3.017 3.017 0 0 1-3.81.003l-.217-.177a1.451 1.451 0 0 0-1.648-.127l-.824.486 2.764 6.452h9.295zm5.253 20.705a.787.787 0 0 1-.782.783.785.785 0 0 1-.78-.783c0-.205.083-.406.228-.552a.787.787 0 0 1 .552-.229.787.787 0 0 1 .781.781zM12.18 35.406a.788.788 0 0 1-.228.553.787.787 0 0 1-.553.229.787.787 0 0 1-.552-.23.787.787 0 0 1-.229-.552c0-.205.084-.407.229-.552a.787.787 0 0 1 .552-.23c.206 0 .407.084.553.23a.788.788 0 0 1 .228.552zm26.856-.564c.592.543.964 1.323.964 2.188A2.973 2.973 0 0 1 37.031 40H.781A.782.782 0 0 1 0 39.218v-3.837c0-4.133 3.176-7.537 7.215-7.9a.787.787 0 0 1 .337-.023l.04-.001a5.438 5.438 0 0 1-1.646-3.9v-4.225a4.344 4.344 0 0 1 4.338-4.34h5.787c.432 0 .781.35.781.782v7.783a5.439 5.439 0 0 1-1.645 3.9l.04.001a.785.785 0 0 1 .337.024c4.038.362 7.215 3.766 7.215 7.9v3.055h3.18a2.963 2.963 0 0 1 .61-3.595 2.962 2.962 0 0 1 0-4.376 2.962 2.962 0 0 1-.964-2.188 2.973 2.973 0 0 1 2.969-2.97h8.437A2.973 2.973 0 0 1 40 28.278c0 .865-.372 1.645-.964 2.188a2.963 2.963 0 0 1 0 4.376zM7.508 20.563h5.866c1.057 0 1.916-.86 1.916-1.916v-2.091h-5.006a2.78 2.78 0 0 0-2.776 2.776zM11.4 27.45a3.896 3.896 0 0 0 3.891-3.892V21.55a3.457 3.457 0 0 1-1.916.577H7.508v1.431A3.896 3.896 0 0 0 11.4 27.45zm-2.075 1.563l2.075 2.076 2.075-2.076zm11.912 6.37a6.376 6.376 0 0 0-5.6-6.322l-3.684 3.685a.78.78 0 0 1-1.105 0L7.163 29.06a6.378 6.378 0 0 0-5.554 5.565h6.329a.781.781 0 0 1 0 1.563H1.562v2.249h19.674zm17.201 1.648c0-.775-.63-1.406-1.406-1.406h-8.437c-.776 0-1.407.63-1.407 1.406 0 .776.631 1.407 1.407 1.407h8.437c.776 0 1.406-.631 1.406-1.407zm0-4.376c0-.776-.63-1.407-1.406-1.407h-8.437c-.776 0-1.407.631-1.407 1.407s.631 1.407 1.407 1.407h8.437c.776 0 1.406-.631 1.406-1.407zm0-4.376c0-.776-.63-1.407-1.406-1.407h-8.437c-.776 0-1.407.631-1.407 1.407 0 .775.631 1.406 1.407 1.406h8.437c.776 0 1.406-.63 1.406-1.406zm-6.522-7.946c0 1.135-.808 2.098-1.915 2.412v.05a.781.781 0 1 1-1.563 0v-.05c-1.107-.314-1.915-1.277-1.915-2.412a.781.781 0 0 1 1.563 0c0 .528.508.957 1.134.957.625 0 1.134-.43 1.134-.957 0-.528-.509-.958-1.134-.958-1.487 0-2.697-1.13-2.697-2.52 0-1.136.808-2.098 1.915-2.412v-.117a.781.781 0 1 1 1.563 0v.117c1.107.314 1.915 1.276 1.915 2.412a.781.781 0 1 1-1.562 0c0-.528-.509-.957-1.134-.957-.626 0-1.134.43-1.134.957 0 .528.508.957 1.134.957 1.487 0 2.696 1.13 2.696 2.52z"/></g></g></svg>