<svg xmlns="http://www.w3.org/2000/svg" width="14" height="22" viewBox="0 0 14 22"><g><g><path fill="#df3434" d="M13.96 1.928v8.315c0 .22-.115.424-.302.533a.58.58 0 0 1-.598-.008c-.73-.45-1.51-.67-2.385-.67-1.138 0-2.287.355-3.505.731-1.245.385-2.533.782-3.845.782-.747 0-1.44-.128-2.097-.389v9.606a.603.603 0 0 1-.594.612.603.603 0 0 1-.594-.612V1.171C.04.834.306.56.634.56c.328 0 .594.274.594.611v.397c.647.34 1.335.505 2.096.505 1.138 0 2.288-.355 3.505-.73C8.075.956 9.363.56 10.675.56c1.097 0 2.077.276 2.996.844.18.11.289.31.289.524zm-3.285 6.947c.747 0 1.44.128 2.096.39V2.287a4.41 4.41 0 0 0-2.096-.505c-1.138 0-2.288.355-3.505.731-1.245.385-2.533.782-3.845.782-.748 0-1.44-.128-2.097-.389v6.976c.647.34 1.336.505 2.097.505 1.137 0 2.287-.355 3.504-.73 1.246-.385 2.534-.783 3.846-.783z"/><path fill="#7e7e7e" d="M13.96 1.928v8.315c0 .22-.115.424-.302.533a.58.58 0 0 1-.598-.008c-.73-.45-1.51-.67-2.385-.67-1.138 0-2.287.355-3.505.731-1.245.385-2.533.782-3.845.782-.747 0-1.44-.128-2.097-.389v9.606a.603.603 0 0 1-.594.612.603.603 0 0 1-.594-.612V1.171C.04.834.306.56.634.56c.328 0 .594.274.594.611v.397c.647.34 1.335.505 2.096.505 1.138 0 2.288-.355 3.505-.73C8.075.956 9.363.56 10.675.56c1.097 0 2.077.276 2.996.844.18.11.289.31.289.524zm-3.285 6.947c.747 0 1.44.128 2.096.39V2.287a4.41 4.41 0 0 0-2.096-.505c-1.138 0-2.288.355-3.505.731-1.245.385-2.533.782-3.845.782-.748 0-1.44-.128-2.097-.389v6.976c.647.34 1.336.505 2.097.505 1.137 0 2.287-.355 3.504-.73 1.246-.385 2.534-.783 3.846-.783z"/></g></g></svg>