<svg xmlns="http://www.w3.org/2000/svg" width="18" height="18" viewBox="0 0 18 18"><g><g><path fill="#ccc" d="M18.011 3.508v12.39a2.115 2.115 0 0 1-2.112 2.113H2.101a2.115 2.115 0 0 1-2.113-2.113V3.508c0-1.164.948-2.112 2.113-2.112h.844V-.012h1.408v1.408h9.293V-.012h1.408v1.408h.845c1.165 0 2.112.948 2.112 2.112zm-1.408 3.098H1.397v9.292c0 .389.315.704.704.704h13.798a.705.705 0 0 0 .704-.704zm0-3.098a.705.705 0 0 0-.704-.704h-.845v1.408h-1.408V2.804H4.353v1.408H2.945V2.804h-.844a.705.705 0 0 0-.704.704v1.69h15.206zM2.663 8.084h1.409v1.408H2.664zm2.817 0h1.408v1.408H5.48zm2.816 0h1.408v1.408H8.296zm2.816 0h1.408v1.408h-1.408zm2.816 0h1.408v1.408h-1.408zM2.664 10.9h1.408v1.408H2.664zm2.816 0h1.408v1.408H5.48zm2.816 0h1.408v1.408H8.296zm2.816 0h1.408v1.408h-1.408zm-8.448 2.816h1.408v1.408H2.664zm2.816 0h1.408v1.408H5.48zm2.816 0h1.408v1.408H8.296zm2.816 0h1.408v1.408h-1.408zm2.816-2.816h1.408v1.408h-1.408z"/></g></g></svg>